<svg width="419" height="261" viewBox="0 0 419 261" fill="none" xmlns="http://www.w3.org/2000/svg">
<mask id="mask0_1_3809" style="mask-type:alpha" maskUnits="userSpaceOnUse" x="-20" y="10" width="362" height="390">
<path opacity="0.69" d="M260.682 115.312C60.4857 -59.905 -12.2673 34.0099 -19.407 44.4408C-19.834 45.0647 -19.9963 45.7462 -19.9893 46.5022L-18.8363 170.403C-17.4447 319.951 113.604 455.175 240.673 376.308C282.152 350.563 317.283 314.121 334.955 262.556C367.623 167.233 276.99 129.585 260.682 115.312Z" fill="#25356A" fill-opacity="0.35"/>
</mask>
<g mask="url(#mask0_1_3809)">
<circle cx="-0.953387" cy="5.07203" r="5.07203" fill="#25356A" fill-opacity="0.35"/>
<circle cx="15.9534" cy="5.07203" r="5.07203" fill="#25356A" fill-opacity="0.35"/>
<circle cx="32.8602" cy="5.07203" r="5.07203" fill="#25356A" fill-opacity="0.35"/>
<circle cx="49.7669" cy="5.07203" r="5.07203" fill="#25356A" fill-opacity="0.35"/>
<circle cx="66.6737" cy="5.07203" r="5.07203" fill="#25356A" fill-opacity="0.35"/>
<circle cx="83.5805" cy="5.07203" r="5.07203" fill="#25356A" fill-opacity="0.35"/>
<circle cx="100.487" cy="5.07203" r="5.07203" fill="#25356A" fill-opacity="0.35"/>
<circle cx="117.394" cy="5.07203" r="5.07203" fill="#25356A" fill-opacity="0.35"/>
<circle cx="134.301" cy="5.07203" r="5.07203" fill="#25356A" fill-opacity="0.35"/>
<circle cx="151.208" cy="5.07203" r="5.07203" fill="#25356A" fill-opacity="0.35"/>
<circle cx="168.114" cy="5.07203" r="5.07203" fill="#25356A" fill-opacity="0.35"/>
<circle cx="185.021" cy="5.07203" r="5.07203" fill="#25356A" fill-opacity="0.35"/>
<circle cx="201.928" cy="5.07203" r="5.07203" fill="#25356A" fill-opacity="0.35"/>
<circle cx="218.835" cy="5.07203" r="5.07203" fill="#25356A" fill-opacity="0.35"/>
<circle cx="235.742" cy="5.07203" r="5.07203" fill="#25356A" fill-opacity="0.35"/>
<circle cx="252.648" cy="5.07203" r="5.07203" fill="#25356A" fill-opacity="0.35"/>
<circle cx="269.555" cy="5.07203" r="5.07203" fill="#25356A" fill-opacity="0.35"/>
<circle cx="286.462" cy="5.07203" r="5.07203" fill="#25356A" fill-opacity="0.35"/>
<circle cx="303.369" cy="5.07203" r="5.07203" fill="#25356A" fill-opacity="0.35"/>
<circle cx="320.275" cy="5.07203" r="5.07203" fill="#25356A" fill-opacity="0.35"/>
<circle cx="337.182" cy="5.07203" r="5.07203" fill="#25356A" fill-opacity="0.35"/>
<circle cx="15.9534" cy="21.9788" r="5.07203" fill="#25356A" fill-opacity="0.35"/>
<circle cx="32.8602" cy="21.9788" r="5.07203" fill="#25356A" fill-opacity="0.35"/>
<circle cx="49.7669" cy="21.9788" r="5.07203" fill="#25356A" fill-opacity="0.35"/>
<circle cx="66.6737" cy="21.9788" r="5.07203" fill="#25356A" fill-opacity="0.35"/>
<circle cx="83.5805" cy="21.9788" r="5.07203" fill="#25356A" fill-opacity="0.35"/>
<circle cx="134.301" cy="21.9788" r="5.07203" fill="#25356A" fill-opacity="0.35"/>
<circle cx="151.208" cy="21.9788" r="5.07203" fill="#25356A" fill-opacity="0.35"/>
<circle cx="168.114" cy="21.9788" r="5.07203" fill="#25356A" fill-opacity="0.35"/>
<circle cx="185.021" cy="21.9788" r="5.07203" fill="#25356A" fill-opacity="0.35"/>
<circle cx="201.928" cy="21.9788" r="5.07203" fill="#25356A" fill-opacity="0.35"/>
<circle cx="218.835" cy="21.9788" r="5.07203" fill="#25356A" fill-opacity="0.35"/>
<circle cx="235.742" cy="21.9788" r="5.07203" fill="#25356A" fill-opacity="0.35"/>
<circle cx="252.648" cy="21.9788" r="5.07203" fill="#25356A" fill-opacity="0.35"/>
<circle cx="269.555" cy="21.9788" r="5.07203" fill="#25356A" fill-opacity="0.35"/>
<circle cx="286.462" cy="21.9788" r="5.07203" fill="#25356A" fill-opacity="0.35"/>
<circle cx="303.369" cy="21.9788" r="5.07203" fill="#25356A" fill-opacity="0.35"/>
<circle cx="320.275" cy="21.9788" r="5.07203" fill="#25356A" fill-opacity="0.35"/>
<circle cx="337.182" cy="21.9788" r="5.07203" fill="#25356A" fill-opacity="0.35"/>
<circle cx="-0.953387" cy="38.8855" r="5.07203" fill="#25356A" fill-opacity="0.35"/>
<circle cx="15.9534" cy="38.8855" r="5.07203" fill="#25356A" fill-opacity="0.35"/>
<circle cx="32.8602" cy="38.8855" r="5.07203" fill="#25356A" fill-opacity="0.35"/>
<circle cx="49.7669" cy="38.8855" r="5.07203" fill="#25356A" fill-opacity="0.35"/>
<circle cx="66.6737" cy="38.8855" r="5.07203" fill="#25356A" fill-opacity="0.35"/>
<circle cx="83.5805" cy="38.8855" r="5.07203" fill="#25356A" fill-opacity="0.35"/>
<circle cx="100.487" cy="38.8855" r="5.07203" fill="#25356A" fill-opacity="0.35"/>
<circle cx="117.394" cy="38.8855" r="5.07203" fill="#25356A" fill-opacity="0.35"/>
<circle cx="134.301" cy="38.8855" r="5.07203" fill="#25356A" fill-opacity="0.35"/>
<circle cx="168.114" cy="38.8855" r="5.07203" fill="#25356A" fill-opacity="0.35"/>
<circle cx="185.021" cy="38.8855" r="5.07203" fill="#25356A" fill-opacity="0.35"/>
<circle cx="201.928" cy="38.8855" r="5.07203" fill="#25356A" fill-opacity="0.35"/>
<circle cx="218.835" cy="38.8855" r="5.07203" fill="#25356A" fill-opacity="0.35"/>
<circle cx="235.742" cy="38.8855" r="5.07203" fill="#25356A" fill-opacity="0.35"/>
<circle cx="252.648" cy="38.8855" r="5.07203" fill="#25356A" fill-opacity="0.35"/>
<circle cx="269.555" cy="38.8855" r="5.07203" fill="#25356A" fill-opacity="0.35"/>
<circle cx="286.462" cy="38.8855" r="5.07203" fill="#25356A" fill-opacity="0.35"/>
<circle cx="303.369" cy="38.8855" r="5.07203" fill="#25356A" fill-opacity="0.35"/>
<circle cx="320.275" cy="38.8855" r="5.07203" fill="#25356A" fill-opacity="0.35"/>
<circle cx="337.182" cy="38.8855" r="5.07203" fill="#25356A" fill-opacity="0.35"/>
<circle cx="-0.953387" cy="55.7924" r="5.07203" fill="#25356A" fill-opacity="0.35"/>
<circle cx="15.9534" cy="55.7924" r="5.07203" fill="#25356A" fill-opacity="0.35"/>
<circle cx="32.8602" cy="55.7924" r="5.07203" fill="#25356A" fill-opacity="0.35"/>
<circle cx="49.7669" cy="55.7924" r="5.07203" fill="#25356A" fill-opacity="0.35"/>
<circle cx="66.6737" cy="55.7924" r="5.07203" fill="#25356A" fill-opacity="0.35"/>
<circle cx="83.5805" cy="55.7924" r="5.07203" fill="#25356A" fill-opacity="0.35"/>
<circle cx="100.487" cy="55.7924" r="5.07203" fill="#25356A" fill-opacity="0.35"/>
<circle cx="117.394" cy="55.7924" r="5.07203" fill="#25356A" fill-opacity="0.35"/>
<circle cx="134.301" cy="55.7924" r="5.07203" fill="#25356A" fill-opacity="0.35"/>
<circle cx="151.208" cy="55.7924" r="5.07203" fill="#25356A" fill-opacity="0.35"/>
<circle cx="168.114" cy="55.7924" r="5.07203" fill="#25356A" fill-opacity="0.35"/>
<circle cx="201.928" cy="55.7924" r="5.07203" fill="#25356A" fill-opacity="0.35"/>
<circle cx="218.835" cy="55.7924" r="5.07203" fill="#25356A" fill-opacity="0.35"/>
<circle cx="235.742" cy="55.7924" r="5.07203" fill="#25356A" fill-opacity="0.35"/>
<circle cx="252.648" cy="55.7924" r="5.07203" fill="#25356A" fill-opacity="0.35"/>
<circle cx="269.555" cy="55.7924" r="5.07203" fill="#25356A" fill-opacity="0.35"/>
<circle cx="286.462" cy="55.7924" r="5.07203" fill="#25356A" fill-opacity="0.35"/>
<circle cx="303.369" cy="55.7924" r="5.07203" fill="#25356A" fill-opacity="0.35"/>
<circle cx="320.275" cy="55.7924" r="5.07203" fill="#25356A" fill-opacity="0.35"/>
<circle cx="337.182" cy="55.7924" r="5.07203" fill="#25356A" fill-opacity="0.35"/>
<circle cx="-0.953387" cy="72.6992" r="5.07203" fill="#25356A" fill-opacity="0.35"/>
<circle cx="15.9534" cy="72.6992" r="5.07203" fill="#25356A" fill-opacity="0.35"/>
<circle cx="32.8602" cy="72.6992" r="5.07203" fill="#25356A" fill-opacity="0.35"/>
<circle cx="49.7669" cy="72.6992" r="5.07203" fill="#25356A" fill-opacity="0.35"/>
<circle cx="66.6737" cy="72.6992" r="5.07203" fill="#25356A" fill-opacity="0.35"/>
<circle cx="83.5805" cy="72.6992" r="5.07203" fill="#25356A" fill-opacity="0.35"/>
<circle cx="100.487" cy="72.6992" r="5.07203" fill="#25356A" fill-opacity="0.35"/>
<circle cx="117.394" cy="72.6992" r="5.07203" fill="#25356A" fill-opacity="0.35"/>
<circle cx="134.301" cy="72.6992" r="5.07203" fill="#25356A" fill-opacity="0.35"/>
<circle cx="151.208" cy="72.6992" r="5.07203" fill="#25356A" fill-opacity="0.35"/>
<circle cx="168.114" cy="72.6992" r="5.07203" fill="#25356A" fill-opacity="0.35"/>
<circle cx="185.021" cy="72.6992" r="5.07203" fill="#25356A" fill-opacity="0.35"/>
<circle cx="218.835" cy="72.6992" r="5.07203" fill="#25356A" fill-opacity="0.35"/>
<circle cx="235.742" cy="72.6992" r="5.07203" fill="#25356A" fill-opacity="0.35"/>
<circle cx="252.648" cy="72.6992" r="5.07203" fill="#25356A" fill-opacity="0.35"/>
<circle cx="269.555" cy="72.6992" r="5.07203" fill="#25356A" fill-opacity="0.35"/>
<circle cx="286.462" cy="72.6992" r="5.07203" fill="#25356A" fill-opacity="0.35"/>
<circle cx="303.369" cy="72.6992" r="5.07203" fill="#25356A" fill-opacity="0.35"/>
<circle cx="320.275" cy="72.6992" r="5.07203" fill="#25356A" fill-opacity="0.35"/>
<circle cx="337.182" cy="72.6992" r="5.07203" fill="#25356A" fill-opacity="0.35"/>
<circle cx="-0.953387" cy="89.606" r="5.07203" fill="#25356A" fill-opacity="0.35"/>
<circle cx="15.9534" cy="89.606" r="5.07203" fill="#25356A" fill-opacity="0.35"/>
<circle cx="32.8602" cy="89.606" r="5.07203" fill="#25356A" fill-opacity="0.35"/>
<circle cx="49.7669" cy="89.606" r="5.07203" fill="#25356A" fill-opacity="0.35"/>
<circle cx="66.6737" cy="89.606" r="5.07203" fill="#25356A" fill-opacity="0.35"/>
<circle cx="83.5805" cy="89.606" r="5.07203" fill="#25356A" fill-opacity="0.35"/>
<circle cx="100.487" cy="89.606" r="5.07203" fill="#25356A" fill-opacity="0.35"/>
<circle cx="117.394" cy="89.606" r="5.07203" fill="#25356A" fill-opacity="0.35"/>
<circle cx="134.301" cy="89.606" r="5.07203" fill="#25356A" fill-opacity="0.35"/>
<circle cx="151.208" cy="89.606" r="5.07203" fill="#25356A" fill-opacity="0.35"/>
<circle cx="168.114" cy="89.606" r="5.07203" fill="#25356A" fill-opacity="0.35"/>
<circle cx="185.021" cy="89.606" r="5.07203" fill="#25356A" fill-opacity="0.35"/>
<circle cx="201.928" cy="89.606" r="5.07203" fill="#25356A" fill-opacity="0.35"/>
<circle cx="218.835" cy="89.606" r="5.07203" fill="#25356A" fill-opacity="0.35"/>
<circle cx="252.648" cy="89.606" r="5.07203" fill="#25356A" fill-opacity="0.35"/>
<circle cx="269.555" cy="89.606" r="5.07203" fill="#25356A" fill-opacity="0.35"/>
<circle cx="286.462" cy="89.606" r="5.07203" fill="#25356A" fill-opacity="0.35"/>
<circle cx="303.369" cy="89.606" r="5.07203" fill="#25356A" fill-opacity="0.35"/>
<circle cx="320.275" cy="89.606" r="5.07203" fill="#25356A" fill-opacity="0.35"/>
<circle cx="337.182" cy="89.606" r="5.07203" fill="#25356A" fill-opacity="0.35"/>
<circle cx="-0.953387" cy="106.513" r="5.07203" fill="#25356A" fill-opacity="0.35"/>
<circle cx="15.9534" cy="106.513" r="5.07203" fill="#25356A" fill-opacity="0.35"/>
<circle cx="32.8602" cy="106.513" r="5.07203" fill="#25356A" fill-opacity="0.35"/>
<circle cx="49.7669" cy="106.513" r="5.07203" fill="#25356A" fill-opacity="0.35"/>
<circle cx="66.6737" cy="106.513" r="5.07203" fill="#25356A" fill-opacity="0.35"/>
<circle cx="83.5805" cy="106.513" r="5.07203" fill="#25356A" fill-opacity="0.35"/>
<circle cx="100.487" cy="106.513" r="5.07203" fill="#25356A" fill-opacity="0.35"/>
<circle cx="117.394" cy="106.513" r="5.07203" fill="#25356A" fill-opacity="0.35"/>
<circle cx="134.301" cy="106.513" r="5.07203" fill="#25356A" fill-opacity="0.35"/>
<circle cx="151.208" cy="106.513" r="5.07203" fill="#25356A" fill-opacity="0.35"/>
<circle cx="168.114" cy="106.513" r="5.07203" fill="#25356A" fill-opacity="0.35"/>
<circle cx="185.021" cy="106.513" r="5.07203" fill="#25356A" fill-opacity="0.35"/>
<circle cx="201.928" cy="106.513" r="5.07203" fill="#25356A" fill-opacity="0.35"/>
<circle cx="218.835" cy="106.513" r="5.07203" fill="#25356A" fill-opacity="0.35"/>
<circle cx="235.742" cy="106.513" r="5.07203" fill="#25356A" fill-opacity="0.35"/>
<circle cx="269.555" cy="106.513" r="5.07203" fill="#25356A" fill-opacity="0.35"/>
<circle cx="286.462" cy="106.513" r="5.07203" fill="#25356A" fill-opacity="0.35"/>
<circle cx="303.369" cy="106.513" r="5.07203" fill="#25356A" fill-opacity="0.35"/>
<circle cx="320.275" cy="106.513" r="5.07203" fill="#25356A" fill-opacity="0.35"/>
<circle cx="337.182" cy="106.513" r="5.07203" fill="#25356A" fill-opacity="0.35"/>
<circle cx="-0.953387" cy="123.419" r="5.07203" fill="#25356A" fill-opacity="0.35"/>
<circle cx="15.9534" cy="123.419" r="5.07203" fill="#25356A" fill-opacity="0.35"/>
<circle cx="32.8602" cy="123.419" r="5.07203" fill="#25356A" fill-opacity="0.35"/>
<circle cx="49.7669" cy="123.419" r="5.07203" fill="#25356A" fill-opacity="0.35"/>
<circle cx="66.6737" cy="123.419" r="5.07203" fill="#25356A" fill-opacity="0.35"/>
<circle cx="83.5805" cy="123.419" r="5.07203" fill="#25356A" fill-opacity="0.35"/>
<circle cx="100.487" cy="123.419" r="5.07203" fill="#25356A" fill-opacity="0.35"/>
<circle cx="117.394" cy="123.419" r="5.07203" fill="#25356A" fill-opacity="0.35"/>
<circle cx="134.301" cy="123.419" r="5.07203" fill="#25356A" fill-opacity="0.35"/>
<circle cx="151.208" cy="123.419" r="5.07203" fill="#25356A" fill-opacity="0.35"/>
<circle cx="168.114" cy="123.419" r="5.07203" fill="#25356A" fill-opacity="0.35"/>
<circle cx="185.021" cy="123.419" r="5.07203" fill="#25356A" fill-opacity="0.35"/>
<circle cx="201.928" cy="123.419" r="5.07203" fill="#25356A" fill-opacity="0.35"/>
<circle cx="218.835" cy="123.419" r="5.07203" fill="#25356A" fill-opacity="0.35"/>
<circle cx="235.742" cy="123.419" r="5.07203" fill="#25356A" fill-opacity="0.35"/>
<circle cx="252.648" cy="123.419" r="5.07203" fill="#25356A" fill-opacity="0.35"/>
<circle cx="286.462" cy="123.419" r="5.07203" fill="#25356A" fill-opacity="0.35"/>
<circle cx="303.369" cy="123.419" r="5.07203" fill="#25356A" fill-opacity="0.35"/>
<circle cx="320.275" cy="123.419" r="5.07203" fill="#25356A" fill-opacity="0.35"/>
<circle cx="337.182" cy="123.419" r="5.07203" fill="#25356A" fill-opacity="0.35"/>
<circle cx="-0.953387" cy="140.326" r="5.07203" fill="#25356A" fill-opacity="0.35"/>
<circle cx="15.9534" cy="140.326" r="5.07203" fill="#25356A" fill-opacity="0.35"/>
<circle cx="32.8602" cy="140.326" r="5.07203" fill="#25356A" fill-opacity="0.35"/>
<circle cx="49.7669" cy="140.326" r="5.07203" fill="#25356A" fill-opacity="0.35"/>
<circle cx="66.6737" cy="140.326" r="5.07203" fill="#25356A" fill-opacity="0.35"/>
<circle cx="83.5805" cy="140.326" r="5.07203" fill="#25356A" fill-opacity="0.35"/>
<circle cx="100.487" cy="140.326" r="5.07203" fill="#25356A" fill-opacity="0.35"/>
<circle cx="117.394" cy="140.326" r="5.07203" fill="#25356A" fill-opacity="0.35"/>
<circle cx="134.301" cy="140.326" r="5.07203" fill="#25356A" fill-opacity="0.35"/>
<circle cx="151.208" cy="140.326" r="5.07203" fill="#25356A" fill-opacity="0.35"/>
<circle cx="168.114" cy="140.326" r="5.07203" fill="#25356A" fill-opacity="0.35"/>
<circle cx="185.021" cy="140.326" r="5.07203" fill="#25356A" fill-opacity="0.35"/>
<circle cx="201.928" cy="140.326" r="5.07203" fill="#25356A" fill-opacity="0.35"/>
<circle cx="218.835" cy="140.326" r="5.07203" fill="#25356A" fill-opacity="0.35"/>
<circle cx="235.742" cy="140.326" r="5.07203" fill="#25356A" fill-opacity="0.35"/>
<circle cx="252.648" cy="140.326" r="5.07203" fill="#25356A" fill-opacity="0.35"/>
<circle cx="269.555" cy="140.326" r="5.07203" fill="#25356A" fill-opacity="0.35"/>
<circle cx="286.462" cy="140.326" r="5.07203" fill="#25356A" fill-opacity="0.35"/>
<circle cx="320.275" cy="140.326" r="5.07203" fill="#25356A" fill-opacity="0.35"/>
<circle cx="337.182" cy="140.326" r="5.07203" fill="#25356A" fill-opacity="0.35"/>
<circle cx="-0.953387" cy="157.233" r="5.07203" fill="#25356A" fill-opacity="0.35"/>
<circle cx="15.9534" cy="157.233" r="5.07203" fill="#25356A" fill-opacity="0.35"/>
<circle cx="32.8602" cy="157.233" r="5.07203" fill="#25356A" fill-opacity="0.35"/>
<circle cx="49.7669" cy="157.233" r="5.07203" fill="#25356A" fill-opacity="0.35"/>
<circle cx="66.6737" cy="157.233" r="5.07203" fill="#25356A" fill-opacity="0.35"/>
<circle cx="83.5805" cy="157.233" r="5.07203" fill="#25356A" fill-opacity="0.35"/>
<circle cx="100.487" cy="157.233" r="5.07203" fill="#25356A" fill-opacity="0.35"/>
<circle cx="117.394" cy="157.233" r="5.07203" fill="#25356A" fill-opacity="0.35"/>
<circle cx="134.301" cy="157.233" r="5.07203" fill="#25356A" fill-opacity="0.35"/>
<circle cx="151.208" cy="157.233" r="5.07203" fill="#25356A" fill-opacity="0.35"/>
<circle cx="168.114" cy="157.233" r="5.07203" fill="#25356A" fill-opacity="0.35"/>
<circle cx="185.021" cy="157.233" r="5.07203" fill="#25356A" fill-opacity="0.35"/>
<circle cx="201.928" cy="157.233" r="5.07203" fill="#25356A" fill-opacity="0.35"/>
<circle cx="218.835" cy="157.233" r="5.07203" fill="#25356A" fill-opacity="0.35"/>
<circle cx="235.742" cy="157.233" r="5.07203" fill="#25356A" fill-opacity="0.35"/>
<circle cx="252.648" cy="157.233" r="5.07203" fill="#25356A" fill-opacity="0.35"/>
<circle cx="269.555" cy="157.233" r="5.07203" fill="#25356A" fill-opacity="0.35"/>
<circle cx="286.462" cy="157.233" r="5.07203" fill="#25356A" fill-opacity="0.35"/>
<circle cx="303.369" cy="157.233" r="5.07203" fill="#25356A" fill-opacity="0.35"/>
<circle cx="337.182" cy="157.233" r="5.07203" fill="#25356A" fill-opacity="0.35"/>
<circle cx="-0.953387" cy="174.14" r="5.07203" fill="#25356A" fill-opacity="0.35"/>
<circle cx="15.9534" cy="174.14" r="5.07203" fill="#25356A" fill-opacity="0.35"/>
<circle cx="32.8602" cy="174.14" r="5.07203" fill="#25356A" fill-opacity="0.35"/>
<circle cx="49.7669" cy="174.14" r="5.07203" fill="#25356A" fill-opacity="0.35"/>
<circle cx="66.6737" cy="174.14" r="5.07203" fill="#25356A" fill-opacity="0.35"/>
<circle cx="83.5805" cy="174.14" r="5.07203" fill="#25356A" fill-opacity="0.35"/>
<circle cx="100.487" cy="174.14" r="5.07203" fill="#25356A" fill-opacity="0.35"/>
<circle cx="117.394" cy="174.14" r="5.07203" fill="#25356A" fill-opacity="0.35"/>
<circle cx="134.301" cy="174.14" r="5.07203" fill="#25356A" fill-opacity="0.35"/>
<circle cx="151.208" cy="174.14" r="5.07203" fill="#25356A" fill-opacity="0.35"/>
<circle cx="168.114" cy="174.14" r="5.07203" fill="#25356A" fill-opacity="0.35"/>
<circle cx="185.021" cy="174.14" r="5.07203" fill="#25356A" fill-opacity="0.35"/>
<circle cx="201.928" cy="174.14" r="5.07203" fill="#25356A" fill-opacity="0.35"/>
<circle cx="218.835" cy="174.14" r="5.07203" fill="#25356A" fill-opacity="0.35"/>
<circle cx="235.742" cy="174.14" r="5.07203" fill="#25356A" fill-opacity="0.35"/>
<circle cx="252.648" cy="174.14" r="5.07203" fill="#25356A" fill-opacity="0.35"/>
<circle cx="269.555" cy="174.14" r="5.07203" fill="#25356A" fill-opacity="0.35"/>
<circle cx="286.462" cy="174.14" r="5.07203" fill="#25356A" fill-opacity="0.35"/>
<circle cx="303.369" cy="174.14" r="5.07203" fill="#25356A" fill-opacity="0.35"/>
<circle cx="320.275" cy="174.14" r="5.07203" fill="#25356A" fill-opacity="0.35"/>
<circle cx="337.182" cy="174.14" r="5.07203" fill="#25356A" fill-opacity="0.35"/>
<circle cx="-0.953387" cy="191.047" r="5.07203" fill="#25356A" fill-opacity="0.35"/>
<circle cx="15.9534" cy="191.047" r="5.07203" fill="#25356A" fill-opacity="0.35"/>
<circle cx="32.8602" cy="191.047" r="5.07203" fill="#25356A" fill-opacity="0.35"/>
<circle cx="49.7669" cy="191.047" r="5.07203" fill="#25356A" fill-opacity="0.35"/>
<circle cx="66.6737" cy="191.047" r="5.07203" fill="#25356A" fill-opacity="0.35"/>
<circle cx="83.5805" cy="191.047" r="5.07203" fill="#25356A" fill-opacity="0.35"/>
<circle cx="100.487" cy="191.047" r="5.07203" fill="#25356A" fill-opacity="0.35"/>
<circle cx="117.394" cy="191.047" r="5.07203" fill="#25356A" fill-opacity="0.35"/>
<circle cx="134.301" cy="191.047" r="5.07203" fill="#25356A" fill-opacity="0.35"/>
<circle cx="151.208" cy="191.047" r="5.07203" fill="#25356A" fill-opacity="0.35"/>
<circle cx="168.114" cy="191.047" r="5.07203" fill="#25356A" fill-opacity="0.35"/>
<circle cx="185.021" cy="191.047" r="5.07203" fill="#25356A" fill-opacity="0.35"/>
<circle cx="201.928" cy="191.047" r="5.07203" fill="#25356A" fill-opacity="0.35"/>
<circle cx="218.835" cy="191.047" r="5.07203" fill="#25356A" fill-opacity="0.35"/>
<circle cx="235.742" cy="191.047" r="5.07203" fill="#25356A" fill-opacity="0.35"/>
<circle cx="252.648" cy="191.047" r="5.07203" fill="#25356A" fill-opacity="0.35"/>
<circle cx="269.555" cy="191.047" r="5.07203" fill="#25356A" fill-opacity="0.35"/>
<circle cx="286.462" cy="191.047" r="5.07203" fill="#25356A" fill-opacity="0.35"/>
<circle cx="303.369" cy="191.047" r="5.07203" fill="#25356A" fill-opacity="0.35"/>
<circle cx="320.275" cy="191.047" r="5.07203" fill="#25356A" fill-opacity="0.35"/>
<circle cx="-0.953387" cy="207.953" r="5.07203" fill="#25356A" fill-opacity="0.35"/>
<circle cx="15.9534" cy="207.953" r="5.07203" fill="#25356A" fill-opacity="0.35"/>
<circle cx="32.8602" cy="207.953" r="5.07203" fill="#25356A" fill-opacity="0.35"/>
<circle cx="49.7669" cy="207.953" r="5.07203" fill="#25356A" fill-opacity="0.35"/>
<circle cx="66.6737" cy="207.953" r="5.07203" fill="#25356A" fill-opacity="0.35"/>
<circle cx="83.5805" cy="207.953" r="5.07203" fill="#25356A" fill-opacity="0.35"/>
<circle cx="100.487" cy="207.953" r="5.07203" fill="#25356A" fill-opacity="0.35"/>
<circle cx="117.394" cy="207.953" r="5.07203" fill="#25356A" fill-opacity="0.35"/>
<circle cx="134.301" cy="207.953" r="5.07203" fill="#25356A" fill-opacity="0.35"/>
<circle cx="151.208" cy="207.953" r="5.07203" fill="#25356A" fill-opacity="0.35"/>
<circle cx="168.114" cy="207.953" r="5.07203" fill="#25356A" fill-opacity="0.35"/>
<circle cx="185.021" cy="207.953" r="5.07203" fill="#25356A" fill-opacity="0.35"/>
<circle cx="201.928" cy="207.953" r="5.07203" fill="#25356A" fill-opacity="0.35"/>
<circle cx="218.835" cy="207.953" r="5.07203" fill="#25356A" fill-opacity="0.35"/>
<circle cx="235.742" cy="207.953" r="5.07203" fill="#25356A" fill-opacity="0.35"/>
<circle cx="252.648" cy="207.953" r="5.07203" fill="#25356A" fill-opacity="0.35"/>
<circle cx="269.555" cy="207.953" r="5.07203" fill="#25356A" fill-opacity="0.35"/>
<circle cx="286.462" cy="207.953" r="5.07203" fill="#25356A" fill-opacity="0.35"/>
<circle cx="303.369" cy="207.953" r="5.07203" fill="#25356A" fill-opacity="0.35"/>
<circle cx="320.275" cy="207.953" r="5.07203" fill="#25356A" fill-opacity="0.35"/>
<circle cx="-0.953387" cy="224.86" r="5.07203" fill="#25356A" fill-opacity="0.35"/>
<circle cx="15.9534" cy="224.86" r="5.07203" fill="#25356A" fill-opacity="0.35"/>
<circle cx="32.8602" cy="224.86" r="5.07203" fill="#25356A" fill-opacity="0.35"/>
<circle cx="49.7669" cy="224.86" r="5.07203" fill="#25356A" fill-opacity="0.35"/>
<circle cx="66.6737" cy="224.86" r="5.07203" fill="#25356A" fill-opacity="0.35"/>
<circle cx="83.5805" cy="224.86" r="5.07203" fill="#25356A" fill-opacity="0.35"/>
<circle cx="100.487" cy="224.86" r="5.07203" fill="#25356A" fill-opacity="0.35"/>
<circle cx="117.394" cy="224.86" r="5.07203" fill="#25356A" fill-opacity="0.35"/>
<circle cx="134.301" cy="224.86" r="5.07203" fill="#25356A" fill-opacity="0.35"/>
<circle cx="151.208" cy="224.86" r="5.07203" fill="#25356A" fill-opacity="0.35"/>
<circle cx="168.114" cy="224.86" r="5.07203" fill="#25356A" fill-opacity="0.35"/>
<circle cx="185.021" cy="224.86" r="5.07203" fill="#25356A" fill-opacity="0.35"/>
<circle cx="201.928" cy="224.86" r="5.07203" fill="#25356A" fill-opacity="0.35"/>
<circle cx="218.835" cy="224.86" r="5.07203" fill="#25356A" fill-opacity="0.35"/>
<circle cx="235.742" cy="224.86" r="5.07203" fill="#25356A" fill-opacity="0.35"/>
<circle cx="252.648" cy="224.86" r="5.07203" fill="#25356A" fill-opacity="0.35"/>
<circle cx="269.555" cy="224.86" r="5.07203" fill="#25356A" fill-opacity="0.35"/>
<circle cx="286.462" cy="224.86" r="5.07203" fill="#25356A" fill-opacity="0.35"/>
<circle cx="303.369" cy="224.86" r="5.07203" fill="#25356A" fill-opacity="0.35"/>
<circle cx="320.275" cy="224.86" r="5.07203" fill="#25356A" fill-opacity="0.35"/>
<circle cx="337.182" cy="224.86" r="5.07203" fill="#25356A" fill-opacity="0.35"/>
<circle cx="-0.953387" cy="241.767" r="5.07203" fill="#25356A" fill-opacity="0.35"/>
<circle cx="15.9534" cy="241.767" r="5.07203" fill="#25356A" fill-opacity="0.35"/>
<circle cx="32.8602" cy="241.767" r="5.07203" fill="#25356A" fill-opacity="0.35"/>
<circle cx="49.7669" cy="241.767" r="5.07203" fill="#25356A" fill-opacity="0.35"/>
<circle cx="66.6737" cy="241.767" r="5.07203" fill="#25356A" fill-opacity="0.35"/>
<circle cx="83.5805" cy="241.767" r="5.07203" fill="#25356A" fill-opacity="0.35"/>
<circle cx="100.487" cy="241.767" r="5.07203" fill="#25356A" fill-opacity="0.35"/>
<circle cx="117.394" cy="241.767" r="5.07203" fill="#25356A" fill-opacity="0.35"/>
<circle cx="134.301" cy="241.767" r="5.07203" fill="#25356A" fill-opacity="0.35"/>
<circle cx="151.208" cy="241.767" r="5.07203" fill="#25356A" fill-opacity="0.35"/>
<circle cx="168.114" cy="241.767" r="5.07203" fill="#25356A" fill-opacity="0.35"/>
<circle cx="185.021" cy="241.767" r="5.07203" fill="#25356A" fill-opacity="0.35"/>
<circle cx="201.928" cy="241.767" r="5.07203" fill="#25356A" fill-opacity="0.35"/>
<circle cx="218.835" cy="241.767" r="5.07203" fill="#25356A" fill-opacity="0.35"/>
<circle cx="235.742" cy="241.767" r="5.07203" fill="#25356A" fill-opacity="0.35"/>
<circle cx="252.648" cy="241.767" r="5.07203" fill="#25356A" fill-opacity="0.35"/>
<circle cx="269.555" cy="241.767" r="5.07203" fill="#25356A" fill-opacity="0.35"/>
<circle cx="286.462" cy="241.767" r="5.07203" fill="#25356A" fill-opacity="0.35"/>
<circle cx="303.369" cy="241.767" r="5.07203" fill="#25356A" fill-opacity="0.35"/>
<circle cx="320.275" cy="241.767" r="5.07203" fill="#25356A" fill-opacity="0.35"/>
<circle cx="-0.953387" cy="258.674" r="5.07203" fill="#25356A" fill-opacity="0.35"/>
<circle cx="15.9534" cy="258.674" r="5.07203" fill="#25356A" fill-opacity="0.35"/>
<circle cx="32.8602" cy="258.674" r="5.07203" fill="#25356A" fill-opacity="0.35"/>
<circle cx="49.7669" cy="258.674" r="5.07203" fill="#25356A" fill-opacity="0.35"/>
<circle cx="66.6737" cy="258.674" r="5.07203" fill="#25356A" fill-opacity="0.35"/>
<circle cx="83.5805" cy="258.674" r="5.07203" fill="#25356A" fill-opacity="0.35"/>
<circle cx="100.487" cy="258.674" r="5.07203" fill="#25356A" fill-opacity="0.35"/>
<circle cx="117.394" cy="258.674" r="5.07203" fill="#25356A" fill-opacity="0.35"/>
<circle cx="134.301" cy="258.674" r="5.07203" fill="#25356A" fill-opacity="0.35"/>
<circle cx="151.208" cy="258.674" r="5.07203" fill="#25356A" fill-opacity="0.35"/>
<circle cx="168.114" cy="258.674" r="5.07203" fill="#25356A" fill-opacity="0.35"/>
<circle cx="185.021" cy="258.674" r="5.07203" fill="#25356A" fill-opacity="0.35"/>
<circle cx="201.928" cy="258.674" r="5.07203" fill="#25356A" fill-opacity="0.35"/>
<circle cx="218.835" cy="258.674" r="5.07203" fill="#25356A" fill-opacity="0.35"/>
<circle cx="235.742" cy="258.674" r="5.07203" fill="#25356A" fill-opacity="0.35"/>
<circle cx="252.648" cy="258.674" r="5.07203" fill="#25356A" fill-opacity="0.35"/>
<circle cx="269.555" cy="258.674" r="5.07203" fill="#25356A" fill-opacity="0.35"/>
<circle cx="286.462" cy="258.674" r="5.07203" fill="#25356A" fill-opacity="0.35"/>
<circle cx="303.369" cy="258.674" r="5.07203" fill="#25356A" fill-opacity="0.35"/>
<circle cx="320.275" cy="258.674" r="5.07203" fill="#25356A" fill-opacity="0.35"/>
</g>
</svg>
